<?xml version="1.0" standalone="no"?><!DOCTYPE svg PUBLIC "-//W3C//DTD SVG 1.1//EN" "http://www.w3.org/Graphics/SVG/1.1/DTD/svg11.dtd"><svg t="1640585206442" class="icon" viewBox="0 0 1024 1024" version="1.1" xmlns="http://www.w3.org/2000/svg" p-id="2844" width="32" height="32" xmlns:xlink="http://www.w3.org/1999/xlink"><defs><style type="text/css"></style></defs><path d="M885.4 411.3C949.3 388.1 995 326.7 995 254.6c0-91.9-74.4-166.5-166-166.5-59.2 0-111.2 31.1-140.6 77.9" fill="#FFBC73" p-id="2845"></path><path d="M847.6 242.7C809 194.4 737.7 136.4 737.7 136.4c-29.6 11.7-54.6 33.4-71.2 61.4l169.2 223.1c34.8-13.4 63.2-8.1 79.5-43-4.6 2.4-29-86.9-67.6-135.2z" fill="#FFA348" p-id="2846"></path><path d="M331.7 160.1c-29.9-43.5-80-72-136.7-72-91.7 0-166 74.6-166 166.5 0 67.7 40.4 126.1 98.2 152" fill="#FFBC73" p-id="2847"></path><path d="M72.6 298.3c0-91.9 74.4-166.5 166-166.5 34.4 0 66.4 10.5 92.9 28.5l0.2-0.2c-29.9-43.5-80-72-136.7-72-91.7 0-166 74.6-166 166.5 0 57.2 28.8 107.6 72.6 137.5-18.3-26.7-29-59-29-93.8z" fill="#FFEDDC" p-id="2848"></path><path d="M924.6 592.3c0 213.5-187.7 343.6-419.2 343.6S86.1 805.8 86.1 592.3s187.7-484 419.2-484 419.3 270.5 419.3 484z" fill="#FFBD48" p-id="2849"></path><path d="M731.3 198.1c80.9 95.7 131.5 221.7 131.5 332.4 0 213.5-187.7 343.6-419.2 343.6-114.8 0-218.9-32-294.6-90.4 73.9 97.1 205.9 152.2 356.4 152.2 231.5 0 419.2-130.1 419.2-343.6 0-136.8-77.1-296.8-193.3-394.2z" fill="#E5A133" p-id="2850"></path><path d="M132.2 633.3c0-213.5 187.7-484 419.2-484 86.7 0 167.2 37.9 234 96.5-74.2-84-172.4-142.6-280.1-142.6-231.5 0-419.2 270.5-419.2 484 0 103.2 44 186.9 115.5 245.9-43.8-53.7-69.4-121.1-69.4-199.8z" fill="#FFCE80" p-id="2851"></path><path d="M505.3 964.9c-263.9 0-448.2-153.2-448.2-372.6 0-232.3 199.9-513 448.2-513s448.2 280.6 448.2 513c0.1 219.3-184.2 372.6-448.2 372.6z m0-827.6c-210.2 0-390.3 250.2-390.3 455 0 185.2 160.5 314.6 390.3 314.6s390.3-129.4 390.3-314.6c0-204.8-180.1-455-390.3-455z" fill="#383F51" p-id="2852"></path><path d="M885.4 440.3c-11.8 0-23-7.3-27.2-19.1-5.5-15 2.3-31.7 17.3-37.1 54.1-19.7 90.5-71.7 90.5-129.4 0-75.8-61.5-137.5-137.1-137.5-47.4 0-90.8 24.1-116 64.3-8.5 13.6-26.4 17.6-40 9.1-13.6-8.5-17.7-26.4-9.1-40 35.9-57.3 97.7-91.5 165.1-91.5 107.5 0 195 87.7 195 195.5 0 82-51.7 155.9-128.7 183.9-3.1 1.2-6.5 1.8-9.8 1.8zM127.2 435.6c-4 0-8-0.8-11.8-2.5C45.3 401.7 0 331.6 0 254.6 0 146.8 87.5 59.1 195 59.1c64.2 0 124.2 31.6 160.5 84.5 9.1 13.2 5.7 31.2-7.5 40.3-13.2 9.1-31.2 5.7-40.3-7.5C282.1 139.2 240 117 194.9 117 119.4 117.1 58 178.8 58 254.6c0 54.2 31.8 103.5 81.1 125.5 14.6 6.5 21.1 23.7 14.6 38.3-4.9 10.8-15.5 17.2-26.5 17.2zM512 444.1c-16 0-29-13-29-29V108.3c0-16 13-29 29-29s29 13 29 29v306.8c0 16-13 29-29 29z" fill="#383F51" p-id="2853"></path><path d="M662.9 298.8c-7.4 0-14.9-2.8-20.5-8.5-116.6-117-257.9-12-263.8-7.5-12.7 9.7-30.9 7.2-40.6-5.5-9.7-12.7-7.2-30.9 5.5-40.6 64.4-48.9 218.3-109.3 339.9 12.7 11.3 11.3 11.3 29.7-0.1 41-5.5 5.5-13 8.4-20.4 8.4z" fill="#383F51" p-id="2854"></path><path d="M662.9 412.5c-7.4 0-14.9-2.8-20.5-8.5-116-116.3-257.9-11.9-263.9-7.4-12.8 9.6-30.9 7.1-40.6-5.7-9.6-12.7-7.2-30.9 5.6-40.5 64.4-48.9 218.3-109.3 339.9 12.7 11.3 11.3 11.3 29.7-0.1 41-5.5 5.6-13 8.4-20.4 8.4z" fill="#383F51" p-id="2855"></path><path d="M285.6 537.2a45.3 45.4 0 1 0 90.6 0 45.3 45.4 0 1 0-90.6 0Z" fill="#383F51" p-id="2856"></path><path d="M647.8 537.2a45.3 45.4 0 1 0 90.6 0 45.3 45.4 0 1 0-90.6 0Z" fill="#383F51" p-id="2857"></path><path d="M512 772c-8 0-14.5-6.5-14.5-14.5v-32.4c0-19.5 7.6-37.9 21.3-51.7l29.9-30c5.6-5.7 14.8-5.7 20.5 0 5.7 5.7 5.7 14.8 0 20.5l-29.9 30c-8.2 8.2-12.9 19.6-12.9 31.2v32.4c0.1 8-6.4 14.5-14.4 14.5z" fill="#383F51" p-id="2858"></path><path d="M512 772c-8 0-14.5-6.5-14.5-14.5v-32.4c0-11.6-4.7-23-12.9-31.2l-29.9-30c-5.7-5.7-5.6-14.8 0-20.5 5.7-5.7 14.8-5.6 20.5 0l29.9 30c13.8 13.8 21.3 32.1 21.3 51.7v32.4c0.1 8-6.4 14.5-14.4 14.5z" fill="#383F51" p-id="2859"></path><path d="M507.9 781.9c-69.7 0-113.6-38.1-114.2-38.6-6-5.3-6.5-14.5-1.2-20.5s14.5-6.5 20.4-1.2c3.5 3 83.1 70.8 200.1-1.5 6.8-4.2 15.7-2.1 19.9 4.7 4.2 6.8 2.1 15.7-4.7 19.9-44.9 27.9-85.8 37.2-120.3 37.2z" fill="#383F51" p-id="2860"></path></svg>